# xmcd
#
# Track frame offsets:
#	150
#	8335
#	16417
#	27035
#	40895
#	45705
#	53995
#	63285
#	68577
#	78902
#	95992
#	108707
#	114027
#	124927
#	133955
#	148137
#	157557
#	168460
#	178415
#	186900
#	196535
#
# Disc length: 2753 seconds
#
# Revision: 2
# Processed by: cddbd v1.5.2PL0 Copyright (c) Steve Scherf et al.
# Submitted via: EZCDAudioConverter 3.0.7.1
#
DISCID=180abf15
DTITLE=Various Artists / Sesame Street: Songs From The Street (Disc 1)
DYEAR=2003
DGENRE=Children's
TTITLE0=The Kids / Sesame Street Theme
TTITLE1=Big Bird / ABC-DEF-GHI
TTITLE2=Kermit The Frog / Bein' Green
TTITLE3=The Kids / Sing
TTITLE4=The Kids / Five Song
TTITLE5=The Anything Muppets / Five People In My Family
TTITLE6=Bob And The Anything Muppets / People In Your Neighborhood
TTITLE7=Jim Henson / Henson King Of Eight
TTITLE8=Cab Calloway And The Two-Headed Monster / Hi De Ho Man
TTITLE9=Lena Horne And Grover / How Do You Do
TTITLE10=Grover / Over, Under, Around And Through
TTITLE11=Various Artists / Ladybugs's Picnic
TTITLE12=The Kids / Somebody Come And Play
TTITLE13=James Taylor And The Kids / Jellyman Kelly
TTITLE14=Billy Joel And Oscar The Grouch / Just The Way You Are
TTITLE15=Joe Raposo / Everybody Sleeps
TTITLE16=Ernie / Rubber Duckie
TTITLE17=Bert / Doin' The Pigeon
TTITLE18=Paul Simon And Kid / Me And Julio Down By The School Yard
TTITLE19=Pete Seeger And The Kids / Sweet-A Little Baby
TTITLE20=Stevie Wonder / 1-2-3 Sesame Street
EXTD=
EXTT0=
EXTT1=
EXTT2=
EXTT3=
EXTT4=
EXTT5=
EXTT6=
EXTT7=
EXTT8=
EXTT9=
EXTT10=
EXTT11=
EXTT12=
EXTT13=
EXTT14=
EXTT15=
EXTT16=
EXTT17=
EXTT18=
EXTT19=
EXTT20=
PLAYORDER=
.
